<svg width="92" height="92" viewBox="0 0 92 92" fill="none" xmlns="http://www.w3.org/2000/svg">
<path d="M61.7068 60.2931L47.4137 46L61.7068 31.7069C62.0812 31.3195 62.0812 30.7051 61.7068 30.3175C61.3231 29.9203 60.6901 29.9093 60.2929 30.293L45.9998 44.5861L31.7068 30.2931C31.3193 29.9188 30.705 29.9188 30.3174 30.2931C29.9202 30.6768 29.9092 31.3098 30.2928 31.707L44.5858 46L30.2928 60.293C30.1053 60.4805 30 60.7348 30 60.9999C29.9999 61.5521 30.4476 61.9999 30.9999 62C31.2651 62.0003 31.5195 61.8948 31.7068 61.7069L45.9998 47.414L60.2929 61.707C60.4801 61.8949 60.7346 62.0004 60.9999 62C61.2649 61.9999 61.519 61.8947 61.7065 61.7073C62.0972 61.3168 62.0973 60.6836 61.7068 60.2931Z" fill="#FF0505"/>
<circle cx="46" cy="46" r="45.5" stroke="#FF0505"/>
</svg>
