<svg aria-hidden="true" style="position: absolute; width: 0; height: 0; overflow: hidden;" version="1.1" xmlns="http://www.w3.org/2000/svg" xmlns:xlink="http://www.w3.org/1999/xlink">
<defs>
<symbol id="icon-next" viewBox="0 0 32 32">
<path d="M0 16c0 8.84 7.16 16 16 16s16-7.16 16-16c0-8.84-7.16-16-16-16s-16 7.16-16 16zM19.2 16l-6.4 6.4v-12.8l6.4 6.4z"></path>
</symbol>
<symbol id="icon-next-how" viewBox="0 0 32 32">
<path d="M0 16c0 8.84 7.16 16 16 16s16-7.16 16-16c0-8.84-7.16-16-16-16s-16 7.16-16 16zM19.2 16l-6.4 6.4v-12.8l6.4 6.4z"></path>
</symbol>
<symbol id="icon-phone-white" viewBox="0 0 32 32">
<path fill="#000" style="fill: var(--color1, #000)" d="M6.4 5.12h19.2v21.76h-19.2v-21.76z"></path>
<path fill="#fff" style="fill: var(--color2, #fff)" d="M16 0c-8.837 0-16 7.163-16 16s7.163 16 16 16c8.837 0 16-7.163 16-16s-7.163-16-16-16zM16.958 6.517c1.088 0.136 1.967 0.398 2.932 0.869 0.949 0.464 1.556 0.903 2.359 1.702 0.753 0.754 1.17 1.326 1.613 2.214 0.617 1.238 0.968 2.71 1.028 4.329 0.022 0.553 0.006 0.676-0.12 0.834-0.24 0.306-0.768 0.255-0.949-0.089-0.057-0.114-0.073-0.212-0.092-0.654-0.032-0.679-0.079-1.118-0.174-1.643-0.373-2.055-1.36-3.697-2.935-4.875-1.312-0.985-2.669-1.465-4.446-1.569-0.601-0.035-0.705-0.057-0.841-0.161-0.254-0.199-0.266-0.666-0.022-0.884 0.148-0.135 0.252-0.155 0.768-0.139 0.269 0.009 0.665 0.041 0.88 0.066l-0-0.001zM9.729 6.858c0.111 0.038 0.281 0.126 0.38 0.19 0.601 0.398 2.274 2.535 2.821 3.603 0.313 0.609 0.417 1.061 0.319 1.396-0.102 0.36-0.269 0.55-1.018 1.153-0.3 0.243-0.582 0.492-0.626 0.559-0.114 0.164-0.206 0.486-0.206 0.714 0.004 0.527 0.345 1.484 0.794 2.22 0.348 0.572 0.971 1.305 1.588 1.866 0.724 0.663 1.363 1.114 2.084 1.471 0.927 0.461 1.493 0.578 1.907 0.385 0.105-0.047 0.215-0.111 0.25-0.139 0.032-0.028 0.275-0.325 0.541-0.654 0.512-0.644 0.629-0.748 0.98-0.868 0.446-0.151 0.901-0.111 1.36 0.123 0.348 0.18 1.106 0.651 1.597 0.991 0.645 0.452 2.025 1.576 2.21 1.8 0.329 0.404 0.386 0.922 0.165 1.494-0.234 0.603-1.145 1.734-1.781 2.217-0.575 0.436-0.983 0.603-1.521 0.628-0.443 0.023-0.626-0.015-1.192-0.249-4.441-1.828-7.986-4.556-10.8-8.305-1.471-1.958-2.591-3.988-3.356-6.095-0.446-1.228-0.468-1.762-0.102-2.39 0.158-0.265 0.832-0.922 1.322-1.289 0.815-0.606 1.192-0.831 1.492-0.894 0.206-0.044 0.563-0.009 0.791 0.073zM17.177 8.807c1.92 0.281 3.406 1.172 4.38 2.618 0.547 0.815 0.889 1.772 1.005 2.798 0.041 0.376 0.041 1.062-0.003 1.175-0.041 0.107-0.174 0.252-0.288 0.312-0.123 0.063-0.386 0.057-0.531-0.019-0.244-0.123-0.316-0.319-0.316-0.849 0-0.818-0.212-1.68-0.578-2.35-0.413-0.759-1.022-1.393-1.765-1.834-0.636-0.379-1.575-0.66-2.432-0.729-0.31-0.025-0.481-0.089-0.598-0.225-0.087-0.096-0.14-0.219-0.148-0.349s0.027-0.258 0.101-0.365c0.164-0.255 0.418-0.297 1.174-0.183zM17.85 11.191c0.623 0.133 1.101 0.369 1.509 0.752 0.525 0.495 0.812 1.095 0.939 1.958 0.085 0.562 0.050 0.783-0.148 0.966-0.187 0.171-0.532 0.177-0.74 0.016-0.152-0.114-0.199-0.234-0.234-0.559-0.041-0.433-0.117-0.736-0.247-1.017-0.278-0.597-0.769-0.906-1.597-1.007-0.39-0.047-0.506-0.091-0.633-0.24-0.231-0.274-0.143-0.72 0.177-0.884 0.12-0.060 0.171-0.066 0.436-0.051 0.18 0.011 0.36 0.033 0.537 0.066z"></path>
</symbol>
<symbol id="icon-phone-hov" viewBox="0 0 32 32">
<path d="M16 0c-8.837 0-16 7.163-16 16s7.163 16 16 16c8.837 0 16-7.163 16-16s-7.163-16-16-16zM16.958 6.517c1.088 0.136 1.967 0.398 2.932 0.869 0.949 0.464 1.556 0.903 2.359 1.702 0.753 0.754 1.17 1.326 1.613 2.214 0.617 1.238 0.968 2.71 1.028 4.329 0.022 0.553 0.006 0.676-0.12 0.834-0.24 0.306-0.768 0.255-0.949-0.089-0.057-0.114-0.073-0.212-0.092-0.654-0.032-0.679-0.079-1.118-0.174-1.643-0.373-2.055-1.36-3.697-2.935-4.875-1.312-0.985-2.669-1.465-4.446-1.569-0.601-0.035-0.705-0.057-0.841-0.161-0.254-0.199-0.266-0.666-0.022-0.884 0.148-0.135 0.252-0.155 0.768-0.139 0.269 0.009 0.665 0.041 0.88 0.066l-0-0.001zM9.729 6.858c0.111 0.038 0.281 0.126 0.38 0.19 0.601 0.398 2.274 2.535 2.821 3.603 0.313 0.609 0.417 1.061 0.319 1.396-0.102 0.36-0.269 0.55-1.018 1.153-0.3 0.243-0.582 0.492-0.626 0.559-0.114 0.164-0.206 0.486-0.206 0.714 0.004 0.527 0.345 1.484 0.794 2.22 0.348 0.572 0.971 1.305 1.588 1.866 0.724 0.663 1.363 1.114 2.084 1.471 0.927 0.461 1.493 0.578 1.907 0.385 0.105-0.047 0.215-0.111 0.25-0.139 0.032-0.028 0.275-0.325 0.541-0.654 0.512-0.644 0.629-0.748 0.98-0.868 0.446-0.151 0.901-0.111 1.36 0.123 0.348 0.18 1.106 0.651 1.597 0.991 0.645 0.452 2.025 1.576 2.21 1.8 0.329 0.404 0.386 0.922 0.165 1.494-0.234 0.603-1.145 1.734-1.781 2.217-0.575 0.436-0.983 0.603-1.521 0.628-0.443 0.023-0.626-0.015-1.192-0.249-4.441-1.828-7.986-4.556-10.8-8.305-1.471-1.958-2.591-3.988-3.356-6.095-0.446-1.228-0.468-1.762-0.102-2.39 0.158-0.265 0.832-0.922 1.322-1.289 0.815-0.606 1.192-0.831 1.492-0.894 0.206-0.044 0.563-0.009 0.791 0.073zM17.177 8.807c1.92 0.281 3.406 1.172 4.38 2.618 0.547 0.815 0.889 1.772 1.005 2.798 0.041 0.376 0.041 1.062-0.003 1.175-0.041 0.107-0.174 0.252-0.288 0.312-0.123 0.063-0.386 0.057-0.531-0.019-0.244-0.123-0.316-0.319-0.316-0.849 0-0.818-0.212-1.68-0.578-2.35-0.413-0.759-1.022-1.393-1.765-1.834-0.636-0.379-1.575-0.66-2.432-0.729-0.31-0.025-0.481-0.089-0.598-0.225-0.087-0.096-0.14-0.219-0.148-0.349s0.027-0.258 0.101-0.365c0.164-0.255 0.418-0.297 1.174-0.183zM17.85 11.191c0.623 0.133 1.101 0.369 1.509 0.752 0.525 0.495 0.812 1.095 0.939 1.958 0.085 0.562 0.050 0.783-0.148 0.966-0.187 0.171-0.532 0.177-0.74 0.016-0.152-0.114-0.199-0.234-0.234-0.559-0.041-0.433-0.117-0.736-0.247-1.017-0.278-0.597-0.769-0.906-1.597-1.007-0.39-0.047-0.506-0.091-0.633-0.24-0.231-0.274-0.143-0.72 0.177-0.884 0.12-0.060 0.171-0.066 0.436-0.051 0.18 0.011 0.36 0.033 0.537 0.066z"></path>
</symbol>
<symbol id="icon-prev" viewBox="0 0 32 32">
<path d="M32 16c0-8.84-7.16-16-16-16s-16 7.16-16 16c0 8.84 7.16 16 16 16s16-7.16 16-16zM12.8 16l6.4-6.4v12.8l-6.4-6.4z"></path>
</symbol>
<symbol id="icon-prev-hov" viewBox="0 0 32 32">
<path d="M32 16c0-8.84-7.16-16-16-16s-16 7.16-16 16c0 8.84 7.16 16 16 16s16-7.16 16-16zM12.8 16l6.4-6.4v12.8l-6.4-6.4z"></path>
</symbol>
<symbol id="icon-teleg-white" viewBox="0 0 32 32">
<path fill="#000" style="fill: var(--color1, #000)" d="M5.12 6.4h20.48v19.2h-20.48v-19.2z"></path>
<path fill="#fff" style="fill: var(--color2, #fff)" d="M16 0c-8.836 0-16 7.164-16 16s7.164 16 16 16c8.836 0 16-7.164 16-16s-7.164-16-16-16zM23.859 10.961l-2.627 12.373c-0.193 0.877-0.716 1.091-1.445 0.677l-4-2.947-1.928 1.859c-0.187 0.24-0.476 0.393-0.8 0.393-0.003 0-0.004 0-0.007 0l0.284-4.072 7.413-6.696c0.32-0.284-0.072-0.445-0.497-0.161l-9.159 5.768-3.947-1.232c-0.853-0.271-0.877-0.853 0.18-1.272l15.421-5.944c0.717-0.261 1.341 0.171 1.109 1.255l0.001-0.001z"></path>
</symbol>
<symbol id="icon-teleg-hov" viewBox="0 0 32 32">
<path d="M16 0c-8.836 0-16 7.164-16 16s7.164 16 16 16c8.836 0 16-7.164 16-16s-7.164-16-16-16zM23.859 10.961l-2.627 12.373c-0.193 0.877-0.716 1.091-1.445 0.677l-4-2.947-1.928 1.859c-0.187 0.24-0.476 0.393-0.8 0.393-0.003 0-0.004 0-0.007 0l0.284-4.072 7.413-6.696c0.32-0.284-0.072-0.445-0.497-0.161l-9.159 5.768-3.947-1.232c-0.853-0.271-0.877-0.853 0.18-1.272l15.421-5.944c0.717-0.261 1.341 0.171 1.109 1.255l0.001-0.001z"></path>
</symbol>
<symbol id="icon-toggle" viewBox="0 0 32 32">
  <circle cx="12.5" cy="12.5" r="12.5" fill="#2D2D2D" />
  <path d="M14.7185 6C15.583 6.48312 16.3238 7.16007 16.8826 7.97768C17.4414 8.79529 17.8031 9.73131 17.9392 10.7122C18.0753 11.6932 17.9822 12.6923 17.6671 13.6312C17.3521 14.5701 16.8237 15.4231 16.1234 16.1234C15.4231 16.8237 14.5701 17.3521 13.6312 17.6671C12.6923 17.9822 11.6932 18.0753 10.7122 17.9392C9.73131 17.8031 8.79529 17.4414 7.97768 16.8826C7.16007 16.3238 6.48312 15.583 6 14.7185C8.4395 16.0842 11.5834 15.7331 13.6579 13.6586C15.7331 11.5834 16.085 8.44023 14.7185 6Z" fill="white" />
</symbol>
<symbol id="icon-toggle-white" viewBox="0 0 32 32">
  <circle cx="12.5" cy="12.5" r="12.5" fill="white" />
  <path d="M14.7185 6C15.583 6.48312 16.3238 7.16007 16.8826 7.97768C17.4414 8.79529 17.8031 9.73131 17.9392 10.7122C18.0753 11.6932 17.9822 12.6923 17.6671 13.6312C17.3521 14.5701 16.8237 15.4231 16.1234 16.1234C15.4231 16.8237 14.5701 17.3521 13.6312 17.6671C12.6923 17.9822 11.6932 18.0753 10.7122 17.9392C9.73131 17.8031 8.79529 17.4414 7.97768 16.8826C7.16007 16.3238 6.48312 15.583 6 14.7185C8.4395 16.0842 11.5834 15.7331 13.6579 13.6586C15.7331 11.5834 16.085 8.44023 14.7185 6Z" fill="#333333" />
</symbol>
<symbol id="icon-whatsapp-white" viewBox="0 0 32 32">
<path fill="#000" style="fill: var(--color1, #000)" d="M6.4 6.4h20.48v20.48h-20.48v-20.48z"></path>
<path fill="#fff" style="fill: var(--color2, #fff)" d="M16.004 0h-0.008c-8.822 0-15.996 7.176-15.996 16-0.005 3.37 1.061 6.654 3.046 9.378l-1.994 5.944 6.15-1.966c2.609 1.731 5.671 2.651 8.802 2.644 8.822 0 15.996-7.178 15.996-16s-7.174-16-15.996-16zM25.314 22.594c-0.386 1.090-1.918 1.994-3.14 2.258-0.836 0.178-1.928 0.32-5.604-1.204-4.702-1.948-7.73-6.726-7.966-7.036-0.226-0.31-1.9-2.53-1.9-4.826s1.166-3.414 1.636-3.894c0.386-0.394 1.024-0.574 1.636-0.574 0.198 0 0.376 0.010 0.536 0.018 0.47 0.020 0.706 0.048 1.016 0.79 0.386 0.93 1.326 3.226 1.438 3.462 0.114 0.236 0.228 0.556 0.068 0.866-0.15 0.32-0.282 0.462-0.518 0.734s-0.46 0.48-0.696 0.772c-0.216 0.254-0.46 0.526-0.188 0.996 0.272 0.46 1.212 1.994 2.596 3.226 1.786 1.59 3.234 2.098 3.752 2.314 0.386 0.16 0.846 0.122 1.128-0.178 0.358-0.386 0.8-1.026 1.25-1.656 0.32-0.452 0.724-0.508 1.148-0.348 0.432 0.15 2.718 1.28 3.188 1.514 0.47 0.236 0.78 0.348 0.894 0.546 0.112 0.198 0.112 1.128-0.274 2.22z"></path>
</symbol>
<symbol id="icon-whatsapp-hov" viewBox="0 0 32 32">
<path d="M16.004 0h-0.008c-8.822 0-15.996 7.176-15.996 16-0.005 3.37 1.061 6.654 3.046 9.378l-1.994 5.944 6.15-1.966c2.609 1.731 5.671 2.651 8.802 2.644 8.822 0 15.996-7.178 15.996-16s-7.174-16-15.996-16zM25.314 22.594c-0.386 1.090-1.918 1.994-3.14 2.258-0.836 0.178-1.928 0.32-5.604-1.204-4.702-1.948-7.73-6.726-7.966-7.036-0.226-0.31-1.9-2.53-1.9-4.826s1.166-3.414 1.636-3.894c0.386-0.394 1.024-0.574 1.636-0.574 0.198 0 0.376 0.010 0.536 0.018 0.47 0.020 0.706 0.048 1.016 0.79 0.386 0.93 1.326 3.226 1.438 3.462 0.114 0.236 0.228 0.556 0.068 0.866-0.15 0.32-0.282 0.462-0.518 0.734s-0.46 0.48-0.696 0.772c-0.216 0.254-0.46 0.526-0.188 0.996 0.272 0.46 1.212 1.994 2.596 3.226 1.786 1.59 3.234 2.098 3.752 2.314 0.386 0.16 0.846 0.122 1.128-0.178 0.358-0.386 0.8-1.026 1.25-1.656 0.32-0.452 0.724-0.508 1.148-0.348 0.432 0.15 2.718 1.28 3.188 1.514 0.47 0.236 0.78 0.348 0.894 0.546 0.112 0.198 0.112 1.128-0.274 2.22z"></path>
</symbol>
</defs>
</svg>
